<?xml version="1.0" encoding="utf-8"?>
<!-- Generator: Adobe Illustrator 19.0.0, SVG Export Plug-In . SVG Version: 6.00 Build 0)  -->
<svg version="1.1" id="Capa_1" xmlns="http://www.w3.org/2000/svg" xmlns:xlink="http://www.w3.org/1999/xlink" x="0px" y="0px"
	 viewBox="-394 156 490 490" style="enable-background:new -394 156 490 490;" xml:space="preserve">
<style type="text/css">
	.st0{fill:#209E91;}
</style>
<g>
	<path class="st0" d="M86,348H38.9V238.5c0-5.5-4.5-10-10-10H-384c-5.5,0-10,4.5-10,10v276.8c0,5.5,4.5,10,10,10h170.7v28.2H-236
		c-5.5,0-10,4.5-10,10c0,5.5,4.5,10,10,10h123.6c5.5,0,10-4.5,10-10c0-5.5-4.5-10-10-10h-22.7v-28.2h57.5v38.2c0,5.5,4.5,10,10,10
		H86c5.5,0,10-4.5,10-10V358C96,352.4,91.5,348,86,348z M76,505.3H-57.6V368H76V505.3z M18.9,248.5V348h-86.6c-5.5,0-10,4.5-10,10
		v70H-374V248.5H18.9z M-155.1,553.5h-38.2v-28.2h38.2V553.5z M-374,505.3V448h296.4v57.2H-374z M-57.6,553.5v-28.2H76v28.2H-57.6z"
		/>
	<circle class="st0" cx="9.2" cy="539.4" r="6.7"/>
	<circle class="st0" cx="-177.5" cy="474.6" r="8.4"/>
</g>
</svg>
