<?xml version="1.0" encoding="utf-8"?>
<!-- Generator: Adobe Illustrator 19.0.0, SVG Export Plug-In . SVG Version: 6.00 Build 0)  -->
<svg version="1.1" id="Capa_1" xmlns="http://www.w3.org/2000/svg" xmlns:xlink="http://www.w3.org/1999/xlink" x="0px" y="0px"
	 viewBox="-609 371 60 60" style="enable-background:new -609 371 60 60;" xml:space="preserve">
<style type="text/css">
	.st0{fill:#209E91;}
</style>
<path class="st0" d="M-556,412v-12h-22v-10h7v-16h-16v16h7v10h-22v12h-7v16h16v-16h-7v-10h20v10h-7v16h16v-16h-7v-10h20v10h-7v16h16
	v-16H-556z M-585,376h12v12h-12V376z M-595,426h-12v-12h12V426z M-573,426h-12v-12h12V426z M-551,426h-12v-12h12V426z"/>
</svg>
