<?xml version="1.0" encoding="utf-8"?>
<!-- Generator: Adobe Illustrator 19.0.0, SVG Export Plug-In . SVG Version: 6.00 Build 0)  -->
<svg version="1.1" id="Layer_1" xmlns="http://www.w3.org/2000/svg" xmlns:xlink="http://www.w3.org/1999/xlink" x="0px" y="0px"
	 viewBox="-383 145 512 512" style="enable-background:new -383 145 512 512;" xml:space="preserve">
<style type="text/css">
	.st0{fill:#209E91;}
</style>
<g>
	<g>
		<path class="st0" d="M17.4,320.8c-1.7-3.4-4.3-5.1-7.7-5.1H-91L8.9,157.8c1.7-2.6,1.7-6,0-8.5S4.6,145,1.2,145h-136.5
			c-3.4,0-6,1.7-7.7,4.3l-128,256c-1.7,2.6-1.7,6,0,8.5s5.1,4.3,7.7,4.3h87.9L-271,645.9c-1.7,3.4,0,7.7,3.4,10.2
			c0.9,0.9,2.6,0.9,4.3,0.9c2.6,0,5.1-0.9,6.8-2.6L16.5,330.2C18.2,327.6,19.1,324.2,17.4,320.8z M-233.5,599.8l78.5-187.7
			c0.9-2.6,0.9-5.1-0.9-7.7c-1.7-1.7-4.3-3.4-6.8-3.4h-87l119.5-238.9h116.1l-100.7,157.9c-1.7,2.6-1.7,6,0,8.5s4.3,4.3,7.7,4.3h99
			L-233.5,599.8z"/>
	</g>
</g>
</svg>
